# xmcd
#
# Track frame offsets: 
#        150
#        26567
#        48939
#        65176
#        87450
#        109128
#        132160
#
# Disc length: 2066 seconds
#
# Revision: 1
# Processed by: cddbd v1.5.2PL0 Copyright (c) Steve Scherf et al.
# Submitted via: ExactAudioCopy v0.99pb5
#
DISCID=5f081007
DTITLE=Edwin Bonilla y Jesus El Niño Pérez - Tirando Pa Charanga
DYEAR=2006
DGENRE=Salsa
TTITLE0=Sabados Rumberos
TTITLE1=Flauta and Timbal
TTITLE2=Hondo
TTITLE3=Oyelo
TTITLE4=Angoa
TTITLE5=Suban La Musica
TTITLE6=Te Traigo
EXTD=YEAR: 2006
EXTT0=
EXTT1=
EXTT2=
EXTT3=
EXTT4=
EXTT5=
EXTT6=
PLAYORDER=
